<svg width="20" height="20" viewBox="0 0 20 20" fill="none" xmlns="http://www.w3.org/2000/svg">
<path fill-rule="evenodd" clip-rule="evenodd" d="M6.54319 10.3621C7.03348 10.2359 7.53323 10.531 7.65942 11.0213C7.92774 12.0638 8.87519 12.8331 10 12.8331C11.1248 12.8331 12.0723 12.0638 12.3406 11.0213C12.4668 10.531 12.9665 10.2359 13.4568 10.3621C13.9471 10.4883 14.2422 10.988 14.1161 11.4783C13.6443 13.3111 11.9816 14.6665 10 14.6665C8.01841 14.6665 6.35569 13.3111 5.88395 11.4783C5.75776 10.988 6.05291 10.4883 6.54319 10.3621ZM15.6667 14.8333V8.80421C15.6667 8.68184 15.6666 8.58741 15.6658 8.50563C15.6654 8.46235 15.6647 8.42709 15.6639 8.39799C15.6414 8.37949 15.614 8.35734 15.5801 8.33041C15.5161 8.27954 15.4415 8.22155 15.3449 8.14642L10 3.98923L4.65505 8.14642C4.55846 8.22154 4.48393 8.27954 4.41989 8.33041C4.38601 8.35734 4.35858 8.37949 4.33609 8.39799C4.33529 8.42709 4.33465 8.46235 4.3342 8.50563C4.33335 8.5874 4.33333 8.68184 4.33333 8.80421V14.8333C4.33333 15.2315 4.33425 15.4792 4.34243 15.6576C4.5208 15.6657 4.76844 15.6667 5.16667 15.6667H14.8333C15.2316 15.6667 15.4792 15.6657 15.6576 15.6576C15.6658 15.4792 15.6667 15.2315 15.6667 14.8333ZM2.56169 7.86588C2.5 8.08627 2.5 8.32558 2.5 8.80421V14.8333C2.5 15.7667 2.5 16.2334 2.68166 16.59C2.84144 16.9036 3.09641 17.1585 3.41002 17.3183C3.76654 17.5 4.23325 17.5 5.16667 17.5H14.8333C15.7668 17.5 16.2335 17.5 16.59 17.3183C16.9036 17.1585 17.1586 16.9036 17.3183 16.59C17.5 16.2334 17.5 15.7667 17.5 14.8333V8.80421C17.5 8.32558 17.5 8.08627 17.4383 7.86588C17.3837 7.67065 17.2939 7.48704 17.1733 7.32405C17.0372 7.14005 16.8483 6.99313 16.4705 6.69929L16.4705 6.69927L10.8186 2.30333C10.5258 2.07562 10.3794 1.96177 10.2178 1.918C10.0752 1.87938 9.92484 1.87938 9.78221 1.918C9.62057 1.96177 9.47418 2.07562 9.18141 2.30333L3.52949 6.69927C3.15168 6.99312 2.96278 7.14005 2.82669 7.32405C2.70614 7.48704 2.61633 7.67065 2.56169 7.86588Z" fill="#3D4A5C"/>
</svg>
