<svg width="34" height="20" viewBox="0 0 34 20" fill="none" xmlns="http://www.w3.org/2000/svg">
<path d="M0 10C0 4.47715 4.47715 0 10 0H24C29.5228 0 34 4.47715 34 10C34 15.5228 29.5228 20 24 20H10C4.47715 20 0 15.5228 0 10Z" fill="white"/>
<path d="M10 0.5H24C29.2467 0.5 33.5 4.7533 33.5 10C33.5 15.2467 29.2467 19.5 24 19.5H10C4.7533 19.5 0.5 15.2467 0.5 10C0.5 4.7533 4.7533 0.5 10 0.5Z" stroke="#1B3860" stroke-opacity="0.24"/>
<path d="M15.8438 10.875H14.75V9.125H15.8438C16.2331 9.125 16.6138 9.00954 16.9375 8.79321C17.2613 8.57688 17.5136 8.2694 17.6626 7.90966C17.8116 7.54992 17.8506 7.15407 17.7747 6.77217C17.6987 6.39027 17.5112 6.03947 17.2359 5.76413C16.9605 5.4888 16.6097 5.30129 16.2278 5.22533C15.8459 5.14937 15.4501 5.18835 15.0903 5.33736C14.7306 5.48637 14.4231 5.73871 14.2068 6.06247C13.9905 6.38623 13.875 6.76687 13.875 7.15625V8.25H12.125V7.15625C12.125 6.76687 12.0095 6.38623 11.7932 6.06247C11.5769 5.73871 11.2694 5.48637 10.9097 5.33736C10.5499 5.18835 10.1541 5.14937 9.77217 5.22533C9.39027 5.30129 9.03947 5.4888 8.76413 5.76413C8.4888 6.03947 8.30129 6.39027 8.22533 6.77217C8.14937 7.15407 8.18835 7.54992 8.33736 7.90966C8.48637 8.2694 8.73871 8.57688 9.06247 8.79321C9.38623 9.00954 9.76687 9.125 10.1563 9.125H11.25V10.875H10.1563C9.76687 10.875 9.38623 10.9905 9.06247 11.2068C8.73871 11.4231 8.48637 11.7306 8.33736 12.0903C8.18835 12.4501 8.14937 12.8459 8.22533 13.2278C8.30129 13.6097 8.4888 13.9605 8.76413 14.2359C9.03947 14.5112 9.39027 14.6987 9.77217 14.7747C10.1541 14.8506 10.5499 14.8116 10.9097 14.6626C11.2694 14.5136 11.5769 14.2613 11.7932 13.9375C12.0095 13.6138 12.125 13.2331 12.125 12.8438V11.75H13.875V12.8438C13.875 13.2331 13.9905 13.6138 14.2068 13.9375C14.4231 14.2613 14.7306 14.5136 15.0903 14.6626C15.4501 14.8116 15.8459 14.8506 16.2278 14.7747C16.6097 14.6987 16.9605 14.5112 17.2359 14.2359C17.5112 13.9605 17.6987 13.6097 17.7747 13.2278C17.8506 12.8459 17.8116 12.4501 17.6626 12.0903C17.5136 11.7306 17.2613 11.4231 16.9375 11.2068C16.6138 10.9905 16.2331 10.875 15.8438 10.875ZM14.75 7.15625C14.75 6.93993 14.8141 6.72846 14.9343 6.5486C15.0545 6.36873 15.2253 6.22854 15.4252 6.14576C15.625 6.06297 15.845 6.04131 16.0571 6.08352C16.2693 6.12572 16.4642 6.22989 16.6171 6.38285C16.7701 6.53582 16.8743 6.7307 16.9165 6.94287C16.9587 7.15504 16.937 7.37495 16.8542 7.57481C16.7715 7.77467 16.6313 7.94549 16.4514 8.06567C16.2715 8.18585 16.0601 8.25 15.8438 8.25H14.75V7.15625ZM9.0625 7.15625C9.0625 6.86617 9.17773 6.58797 9.38285 6.38285C9.58797 6.17773 9.86617 6.0625 10.1563 6.0625C10.4463 6.0625 10.7245 6.17773 10.9296 6.38285C11.1348 6.58797 11.25 6.86617 11.25 7.15625V8.25H10.1563C9.86617 8.25 9.58797 8.13477 9.38285 7.92965C9.17773 7.72453 9.0625 7.44633 9.0625 7.15625ZM11.25 12.8438C11.25 13.0601 11.1859 13.2715 11.0657 13.4514C10.9455 13.6313 10.7747 13.7715 10.5748 13.8542C10.375 13.937 10.155 13.9587 9.94287 13.9165C9.7307 13.8743 9.53582 13.7701 9.38285 13.6171C9.22989 13.4642 9.12572 13.2693 9.08352 13.0571C9.04131 12.845 9.06297 12.625 9.14576 12.4252C9.22854 12.2253 9.36873 12.0545 9.5486 11.9343C9.72846 11.8141 9.93993 11.75 10.1563 11.75H11.25V12.8438ZM12.125 9.125H13.875V10.875H12.125V9.125ZM15.8438 13.9375C15.5537 13.9375 15.2755 13.8223 15.0704 13.6171C14.8652 13.412 14.75 13.1338 14.75 12.8438V11.75H15.8438C16.1338 11.75 16.412 11.8652 16.6171 12.0704C16.8223 12.2755 16.9375 12.5537 16.9375 12.8438C16.9375 13.1338 16.8223 13.412 16.6171 13.6171C16.412 13.8223 16.1338 13.9375 15.8438 13.9375Z" fill="#8897AE"/>
<path d="M20.9588 14V5.27273H22.2756V9.44034H22.3821L26.0426 5.27273H27.7003L24.1804 9.2017L27.7131 14H26.1278L23.3068 10.1009L22.2756 11.2855V14H20.9588Z" fill="#8897AE"/>
</svg>
