<svg width="28" height="28" viewBox="0 0 28 28" fill="none" xmlns="http://www.w3.org/2000/svg">
<path d="M22.3601 0H5.63985C2.52505 0 0 2.52505 0 5.63985V22.3601C0 25.475 2.52505 28 5.63985 28H22.3601C25.475 28 28 25.475 28 22.3601V5.63985C28 2.52505 25.475 0 22.3601 0Z" fill="#6F57EB"/>
<path d="M22.3601 0H5.63985C2.52505 0 0 2.52505 0 5.63985V22.3601C0 25.475 2.52505 28 5.63985 28H22.3601C25.475 28 28 25.475 28 22.3601V5.63985C28 2.52505 25.475 0 22.3601 0Z" fill="url(#paint0_linear_20_964)"/>
<path d="M10.7422 17.1935H6.2002V21.7354H10.7422V17.1935Z" fill="#EFF1F2"/>
<path d="M23.0519 17.1935H13.9698V21.7336H23.0519V17.1935Z" fill="#EFF1F2"/>
<path d="M10.74 4.8988H6.19995V13.9809H10.74V4.8988Z" fill="#EFF1F2"/>
<path d="M19.2661 5.45988L10.7424 13.9835L13.9528 17.1938L22.4764 8.6702L19.2661 5.45988Z" fill="#EFF1F2"/>
<path opacity="0.1" d="M27.9999 20.4612V22.3599C27.9999 25.475 25.4751 27.9998 22.36 27.9998H5.63973C2.52465 27.9998 -0.00012207 25.475 -0.00012207 22.3599V20.4612C-0.00012207 23.5763 2.52465 26.101 5.63973 26.101H22.36C25.4751 26.101 27.9999 23.5763 27.9999 20.4612Z" fill="black"/>
<defs>
<linearGradient id="paint0_linear_20_964" x1="2" y1="26.5" x2="28" y2="0.499999" gradientUnits="userSpaceOnUse">
<stop stop-color="#B4B49C"/>
<stop offset="0.5" stop-color="#EEC34B"/>
<stop offset="1" stop-color="#DC8200"/>
</linearGradient>
</defs>
</svg>
